<?xml version="1.0" encoding="utf-8"?>
<!-- Generator: Adobe Illustrator 18.1.1, SVG Export Plug-In . SVG Version: 6.00 Build 0)  -->
<svg version="1.1" id="圖層_1" xmlns="http://www.w3.org/2000/svg" xmlns:xlink="http://www.w3.org/1999/xlink" x="0px" y="0px"
	 viewBox="0 0 28.4 28.4" enable-background="new 0 0 28.4 28.4" xml:space="preserve">
<g id="圖層_2" display="none">
	<path display="inline" fill="#FFFFFF" d="M14.2,1.3c7.2,0,13,5.8,13,13s-5.8,13-13,13s-13-5.8-13-13S7.1,1.3,14.2,1.3z M12,21.3
		L23.5,9.9l-2.8-2.8l-8.5,8.5L8,11.4l-3,2.8L12,21.3z"/>
</g>
<g id="圖層_2_拷貝_3">
	<circle display="none" fill="#36A40A" cx="14.2" cy="14.2" r="13"/>
	<polygon fill="#FFFFFF" points="1.2,14.4 5.2,10.6 11,16.3 22.7,4.6 26.7,8.5 10.8,24.2 	"/>
</g>
<g id="圖層_2_拷貝" display="none">
	<circle display="inline" fill="#FBCD41" cx="14.2" cy="14.2" r="13"/>
	<polygon display="inline" fill="#FFFFFF" points="5,14.2 7.9,11.4 12.1,15.6 20.6,7.1 23.5,9.9 12,21.3 	"/>
</g>
<g id="圖層_2_拷貝_2" display="none">
	<circle display="inline" fill="#CD4128" cx="14.2" cy="14.2" r="13"/>
	<polygon display="inline" fill="#FFFFFF" points="5,14.2 7.9,11.4 12.1,15.6 20.6,7.1 23.5,9.9 12,21.3 	"/>
</g>
</svg>
