<?xml version="1.0" encoding="utf-8"?>
<!-- Generator: Adobe Illustrator 18.1.1, SVG Export Plug-In . SVG Version: 6.00 Build 0)  -->
<svg version="1.1" id="圖層_1" xmlns="http://www.w3.org/2000/svg" xmlns:xlink="http://www.w3.org/1999/xlink" x="0px" y="0px"
	 viewBox="0 0 28.4 28.4" enable-background="new 0 0 28.4 28.4" xml:space="preserve">
<g id="圖層_5_拷貝_7" display="none">
	<path display="inline" fill="#FFFFFF" d="M27,14.1c0,7-5.7,12.7-12.7,12.7S1.6,21.1,1.6,14.1S7.3,1.4,14.3,1.4
		C21.3,1.4,27,7.1,27,14.1z M17.1,18.8c-3.1,0.6-5.1-0.7-5.8-1.2l3.1-2.1H4.2l0.1,0.1l0,0l5.3,8.5l0.1-3.3c0.9,0.6,4,2.1,8.2,0.7
		c5.7-1.9,6.1-7.3,6.1-7.7l0,0l0,0C24,13.8,22.8,17.6,17.1,18.8z M11,9.2c3.1-0.6,5.1,0.7,5.8,1.2l-3.1,2.1h10.2l-0.1-0.1l0,0
		l-5.3-8.5l-0.1,3.3c-0.9-0.6-4-2.1-8.2-0.7c-5.7,1.9-6.1,7.3-6.1,7.7l0,0l0,0C4.1,14.2,5.4,10.4,11,9.2z"/>
</g>
<g id="圖層_5_拷貝_8">
	<circle display="none" fill="#36A40A" cx="14.3" cy="14.1" r="12.7"/>
	<g id="圖層_7_拷貝_4">
		<g>
			<path fill="#FFFFFF" d="M18.3,20.4c-3.9,0.8-6.5-0.9-7.4-1.5l3.9-2.7h-13L2,16.4l0,0l6.7,10.8L8.9,23c1.1,0.8,5.1,2.7,10.4,0.9
				c7.2-2.4,7.8-9.3,7.8-9.8l0,0l0,0C27,14.1,25.5,18.9,18.3,20.4z"/>
			<path fill="#FFFFFF" d="M10.5,8.2c3.9-0.8,6.5,0.9,7.4,1.5l-3.9,2.7h13l-0.1-0.1l0,0L20,1.5l-0.1,4.2C18.8,4.9,14.8,3,9.5,4.8
				c-7.2,2.4-7.8,9.3-7.8,9.8l0,0l0,0C1.7,14.6,3.4,9.8,10.5,8.2z"/>
		</g>
	</g>
</g>
<g id="圖層_5_拷貝_5" display="none">
	<circle display="inline" fill="#FBCD41" cx="14.3" cy="14.1" r="12.7"/>
	<g id="圖層_7_拷貝" display="inline">
		<g>
			<path fill="#FFFFFF" d="M17.1,18.8c-3.1,0.6-5.1-0.7-5.8-1.2l3.1-2.1H4.2l0.1,0.1l0,0l5.3,8.5l0.1-3.3c0.9,0.6,4,2.1,8.2,0.7
				c5.7-1.9,6.1-7.3,6.1-7.7l0,0l0,0C24,13.8,22.8,17.6,17.1,18.8z"/>
			<path fill="#FFFFFF" d="M11,9.2c3.1-0.6,5.1,0.7,5.8,1.2l-3.1,2.1h10.2l-0.1-0.1l0,0l-5.3-8.5l-0.1,3.3c-0.9-0.6-4-2.1-8.2-0.7
				c-5.7,1.9-6.1,7.3-6.1,7.7l0,0l0,0C4.1,14.2,5.4,10.4,11,9.2z"/>
		</g>
	</g>
</g>
<g id="圖層_5_拷貝_6" display="none">
	<circle display="inline" fill="#CD4128" cx="14.3" cy="14.1" r="12.7"/>
	<g id="圖層_7_拷貝_2" display="inline">
		<g>
			<path fill="#FFFFFF" d="M17.1,18.8c-3.1,0.6-5.1-0.7-5.8-1.2l3.1-2.1H4.2l0.1,0.1l0,0l5.3,8.5l0.1-3.3c0.9,0.6,4,2.1,8.2,0.7
				c5.7-1.9,6.1-7.3,6.1-7.7l0,0l0,0C24,13.8,22.8,17.6,17.1,18.8z"/>
			<path fill="#FFFFFF" d="M11,9.2c3.1-0.6,5.1,0.7,5.8,1.2l-3.1,2.1h10.2l-0.1-0.1l0,0l-5.3-8.5l-0.1,3.3c-0.9-0.6-4-2.1-8.2-0.7
				c-5.7,1.9-6.1,7.3-6.1,7.7l0,0l0,0C4.1,14.2,5.4,10.4,11,9.2z"/>
		</g>
	</g>
</g>
</svg>
